<svg width="1032" height="712" viewBox="0 0 1032 712" fill="none" xmlns="http://www.w3.org/2000/svg">
<path d="M273.816 561.688L103.793 709.315L116.809 712L273.816 561.688Z" fill="#FFE69C"/>
<path d="M213.517 494.444L6.91943 584.019V597.289L213.517 494.444Z" fill="#FFE69C"/>
<path d="M57.3461 542.453L11.8623 559.996V564.172L57.3461 542.453Z" fill="#FFE69C"/>
<path d="M354.873 397.533L6.91943 489.704V506.311L354.873 397.533Z" fill="#FFE69C"/>
<path d="M341.619 368.697L54.9087 396.264V396.278C54.9089 409.401 54.909 410.885 57.3453 415.477L341.619 368.697Z" fill="#FFE69C"/>
<path d="M318.299 381.711L0 436.685V445.989L318.299 381.711Z" fill="#FFE69C"/>
<path d="M110.713 445.989L0 466.702V476.645L110.713 445.989Z" fill="#FFE69C"/>
<path d="M342.023 264.033L3.9541 101.855L6.45215 148.67L342.023 264.033Z" fill="#FFE69C"/>
<path d="M186.488 228.358L66.2803 184.084V190.767L186.488 228.358Z" fill="#FFE69C"/>
<path d="M253.089 298.529L13.4868 248.407V268.456L253.089 298.529Z" fill="#FFE69C"/>
<path d="M239.28 307.718L117.449 291.011V298.529L239.28 307.718Z" fill="#FFE69C"/>
<path d="M102.018 88.8546L14.2993 32.8857V37.0625L102.018 88.8546Z" fill="#FFE69C"/>
<path d="M261.954 141.411L73.1494 0H95.0281L261.954 141.411Z" fill="#FFE69C"/>
<path d="M279.747 123.611L137.402 1.97754H149.603L279.747 123.611Z" fill="#FFE69C"/>
<path d="M569.379 171.078L607.236 9.88867H612.874L569.379 171.078Z" fill="#FFE69C"/>
<path d="M609.908 75.1555L626.713 20.7666H624.312L609.908 75.1555Z" fill="#FFE69C"/>
<path d="M598.046 164.155L663.373 6.92188H673.172L598.046 164.155Z" fill="#FFE69C"/>
<path d="M928.848 3.64746L689.246 216.663L988.14 3.64746H928.848Z" fill="#FFE69C"/>
<path d="M1032 112.245C965.67 143.432 832.196 206.473 828.947 209.146L1032 128.117V112.245Z" fill="#FFE69C"/>
<path d="M1030.37 47.9219L962.961 92.1958L1030.37 52.0987V47.9219Z" fill="#FFE69C"/>
<path d="M933.722 216.663L812.702 255.089L936.97 221.675L933.722 216.663Z" fill="#FFE69C"/>
<path d="M1030.38 217.5L930.474 246.737L1030.38 225.854V217.5Z" fill="#FFE69C"/>
<path d="M1008.29 328.312L835.287 332.488H1008.29V328.312Z" fill="#FFE69C"/>
<path d="M1026.43 346.111H855.058L1026.43 359.477V346.111Z" fill="#FFE69C"/>
<path d="M1018.61 373.269C942.537 369.649 789.083 362.744 783.885 364.08L1018.61 376.611V373.269Z" fill="#FFE69C"/>
<path d="M1030.38 681.122L794.834 514.051L1030.38 649.378V681.122Z" fill="#FFE69C"/>
<path d="M975.958 662.744L826.511 547.465L983.268 653.555L975.958 662.744Z" fill="#FFE69C"/>
<path d="M880.381 704.089L654.391 467.744L901.517 704.089H880.381Z" fill="#FFE69C"/>
<path d="M780.674 704.089L642.529 499.389L801.678 704.089H780.674Z" fill="#FFE69C"/>
<path d="M818.389 702.005L660.007 503.19L826.511 702.005H818.389Z" fill="#FFE69C"/>
<path d="M569.851 702.006L551.982 546.63L579.597 702.006H569.851Z" fill="#FFE69C"/>
</svg>
