<svg width="276" height="163" viewBox="0 0 276 163" fill="none" xmlns="http://www.w3.org/2000/svg">
<path d="M246.484 13.1972L237.463 40.5183L274 47.2366L242.876 70.5268L262.894 81.7239L230.697 93.369L257.831 121.872L220.322 116.659L233.854 139.054L204.985 133.679V157.865L177.469 139.054L152.66 161L139.579 133.679L113.867 151.594L104.846 135.918L69.2107 157.865V128.304H28.1626L40.3416 108.597L2 104.118L25.4561 81.7239L2 62.9839L40.3416 58.8817L25.4561 33.8H63.3465L77.7939 13.1972L99.4326 25.738L117.025 9.61408L135.519 22.1549L163.035 2L165.741 22.1549L201.376 2L204.985 25.738L246.484 13.1972Z" fill="white" stroke="black" stroke-width="2.88083" stroke-linejoin="round"/>
</svg>
